<?xml version="1.0" encoding="UTF-8" standalone="no"?>
<!DOCTYPE svg PUBLIC "-//W3C//DTD SVG 1.0//EN" "http://www.w3.org/TR/2001/PR-SVG-20010719/DTD/svg10.dtd">
<svg width="11cm" height="13cm" viewBox="41 51 210 250" xmlns="http://www.w3.org/2000/svg" xmlns:xlink="http://www.w3.org/1999/xlink">
  <g>
    <rect style="fill: none; fill-opacity:0; stroke-width: 2; stroke: #000000" x="72" y="148" width="160" height="62"/>
    <text font-size="11.2889" style="fill: #000000;text-anchor:middle;font-family:monospace;font-style:normal;font-weight:normal" x="152" y="175.367">
      <tspan x="152" y="175.367">Phison</tspan>
      <tspan x="152" y="189.479">PS8211-0</tspan>
    </text>
  </g>
  <g>
    <rect style="fill: none; fill-opacity:0; stroke-width: 0.2; stroke: #000000" x="225.904" y="197.667" width="6" height="4"/>
    <text font-size="1.69333" style="fill: #000000;text-anchor:middle;font-family:monospace;font-style:normal;font-weight:normal" x="228.904" y="200.181">
      <tspan x="228.904" y="200.181">29</tspan>
    </text>
  </g>
  <g>
    <rect style="fill: none; fill-opacity:0; stroke-width: 0.2; stroke: #000000" x="225.904" y="189.474" width="6" height="4"/>
    <text font-size="1.69333" style="fill: #000000;text-anchor:middle;font-family:monospace;font-style:normal;font-weight:normal" x="228.904" y="191.988">
      <tspan x="228.904" y="191.988">28</tspan>
    </text>
  </g>
  <g>
    <rect style="fill: none; fill-opacity:0; stroke-width: 0.2; stroke: #000000" x="225.904" y="181.089" width="6" height="4"/>
    <text font-size="1.69333" style="fill: #000000;text-anchor:middle;font-family:monospace;font-style:normal;font-weight:normal" x="228.904" y="183.602">
      <tspan x="228.904" y="183.602">27</tspan>
    </text>
  </g>
  <g>
    <rect style="fill: none; fill-opacity:0; stroke-width: 0.2; stroke: #000000" x="225.904" y="172.511" width="6" height="4"/>
    <text font-size="1.69333" style="fill: #000000;text-anchor:middle;font-family:monospace;font-style:normal;font-weight:normal" x="228.904" y="175.024">
      <tspan x="228.904" y="175.024">26</tspan>
    </text>
  </g>
  <g>
    <rect style="fill: none; fill-opacity:0; stroke-width: 0.2; stroke: #000000" x="225.904" y="164.029" width="6" height="4"/>
    <text font-size="1.69333" style="fill: #000000;text-anchor:middle;font-family:monospace;font-style:normal;font-weight:normal" x="228.904" y="166.542">
      <tspan x="228.904" y="166.542">25</tspan>
    </text>
  </g>
  <g>
    <rect style="fill: none; fill-opacity:0; stroke-width: 0.2; stroke: #000000" x="225.904" y="155.065" width="6" height="4"/>
    <text font-size="1.69333" style="fill: #000000;text-anchor:middle;font-family:monospace;font-style:normal;font-weight:normal" x="228.904" y="157.578">
      <tspan x="228.904" y="157.578">24</tspan>
    </text>
  </g>
  <g>
    <rect style="fill: none; fill-opacity:0; stroke-width: 0.2; stroke: #000000" x="216.289" y="148" width="4" height="6"/>
    <text font-size="1.69333" style="fill: #000000;text-anchor:middle;font-family:monospace;font-style:normal;font-weight:normal" x="218.289" y="151.513">
      <tspan x="218.289" y="151.513">23</tspan>
    </text>
  </g>
  <g>
    <rect style="fill: none; fill-opacity:0; stroke-width: 0.2; stroke: #000000" x="207.904" y="148" width="4" height="6"/>
    <text font-size="1.69333" style="fill: #000000;text-anchor:middle;font-family:monospace;font-style:normal;font-weight:normal" x="209.904" y="151.513">
      <tspan x="209.904" y="151.513">22</tspan>
    </text>
  </g>
  <g>
    <rect style="fill: none; fill-opacity:0; stroke-width: 0.2; stroke: #000000" x="199.518" y="148" width="4" height="6"/>
    <text font-size="1.69333" style="fill: #000000;text-anchor:middle;font-family:monospace;font-style:normal;font-weight:normal" x="201.518" y="151.513">
      <tspan x="201.518" y="151.513">21</tspan>
    </text>
  </g>
  <g>
    <rect style="fill: none; fill-opacity:0; stroke-width: 0.2; stroke: #000000" x="191.036" y="148" width="4" height="6"/>
    <text font-size="1.69333" style="fill: #000000;text-anchor:middle;font-family:monospace;font-style:normal;font-weight:normal" x="193.036" y="151.513">
      <tspan x="193.036" y="151.513">20</tspan>
    </text>
  </g>
  <g>
    <rect style="fill: none; fill-opacity:0; stroke-width: 0.2; stroke: #000000" x="182.554" y="148" width="4" height="6"/>
    <text font-size="1.69333" style="fill: #000000;text-anchor:middle;font-family:monospace;font-style:normal;font-weight:normal" x="184.554" y="151.513">
      <tspan x="184.554" y="151.513">19</tspan>
    </text>
  </g>
  <g>
    <rect style="fill: none; fill-opacity:0; stroke-width: 0.2; stroke: #000000" x="174.072" y="148" width="4" height="6"/>
    <text font-size="1.69333" style="fill: #000000;text-anchor:middle;font-family:monospace;font-style:normal;font-weight:normal" x="176.072" y="151.513">
      <tspan x="176.072" y="151.513">18</tspan>
    </text>
  </g>
  <g>
    <rect style="fill: none; fill-opacity:0; stroke-width: 0.2; stroke: #000000" x="165.904" y="148" width="4" height="6"/>
    <text font-size="1.69333" style="fill: #000000;text-anchor:middle;font-family:monospace;font-style:normal;font-weight:normal" x="167.904" y="151.513">
      <tspan x="167.904" y="151.513">17</tspan>
    </text>
  </g>
  <g>
    <rect style="fill: none; fill-opacity:0; stroke-width: 0.2; stroke: #000000" x="157.904" y="148" width="4" height="6"/>
    <text font-size="1.69333" style="fill: #000000;text-anchor:middle;font-family:monospace;font-style:normal;font-weight:normal" x="159.904" y="151.513">
      <tspan x="159.904" y="151.513">16</tspan>
    </text>
  </g>
  <g>
    <rect style="fill: none; fill-opacity:0; stroke-width: 0.2; stroke: #000000" x="148.675" y="148" width="4" height="6"/>
    <text font-size="1.69333" style="fill: #000000;text-anchor:middle;font-family:monospace;font-style:normal;font-weight:normal" x="150.675" y="151.513">
      <tspan x="150.675" y="151.513">15</tspan>
    </text>
  </g>
  <g>
    <rect style="fill: none; fill-opacity:0; stroke-width: 0.2; stroke: #000000" x="140.482" y="148" width="4" height="6"/>
    <text font-size="1.69333" style="fill: #000000;text-anchor:middle;font-family:monospace;font-style:normal;font-weight:normal" x="142.482" y="151.513">
      <tspan x="142.482" y="151.513">14</tspan>
    </text>
  </g>
  <g>
    <rect style="fill: none; fill-opacity:0; stroke-width: 0.2; stroke: #000000" x="131.904" y="148" width="4" height="6"/>
    <text font-size="1.69333" style="fill: #000000;text-anchor:middle;font-family:monospace;font-style:normal;font-weight:normal" x="133.904" y="151.513">
      <tspan x="133.904" y="151.513">13</tspan>
    </text>
  </g>
  <g>
    <rect style="fill: none; fill-opacity:0; stroke-width: 0.2; stroke: #000000" x="123.518" y="148" width="4" height="6"/>
    <text font-size="1.69333" style="fill: #000000;text-anchor:middle;font-family:monospace;font-style:normal;font-weight:normal" x="125.518" y="151.513">
      <tspan x="125.518" y="151.513">12</tspan>
    </text>
  </g>
  <g>
    <rect style="fill: none; fill-opacity:0; stroke-width: 0.2; stroke: #000000" x="115.325" y="148" width="4" height="6"/>
    <text font-size="1.69333" style="fill: #000000;text-anchor:middle;font-family:monospace;font-style:normal;font-weight:normal" x="117.325" y="151.513">
      <tspan x="117.325" y="151.513">11</tspan>
    </text>
  </g>
  <g>
    <rect style="fill: none; fill-opacity:0; stroke-width: 0.2; stroke: #000000" x="107.036" y="148" width="4" height="6"/>
    <text font-size="1.69333" style="fill: #000000;text-anchor:middle;font-family:monospace;font-style:normal;font-weight:normal" x="109.036" y="151.513">
      <tspan x="109.036" y="151.513">10</tspan>
    </text>
  </g>
  <g>
    <rect style="fill: none; fill-opacity:0; stroke-width: 0.2; stroke: #000000" x="98.7711" y="148" width="4" height="6"/>
    <text font-size="1.69333" style="fill: #000000;text-anchor:middle;font-family:monospace;font-style:normal;font-weight:normal" x="100.771" y="151.513">
      <tspan x="100.771" y="151.513">09</tspan>
    </text>
  </g>
  <g>
    <rect style="fill: none; fill-opacity:0; stroke-width: 0.2; stroke: #000000" x="90.3855" y="148" width="4" height="6"/>
    <text font-size="1.69333" style="fill: #000000;text-anchor:middle;font-family:monospace;font-style:normal;font-weight:normal" x="92.3855" y="151.513">
      <tspan x="92.3855" y="151.513">08</tspan>
    </text>
  </g>
  <g>
    <rect style="fill: none; fill-opacity:0; stroke-width: 0.2; stroke: #000000" x="81.9036" y="148" width="4" height="6"/>
    <text font-size="1.69333" style="fill: #000000;text-anchor:middle;font-family:monospace;font-style:normal;font-weight:normal" x="83.9036" y="151.513">
      <tspan x="83.9036" y="151.513">07</tspan>
    </text>
  </g>
  <g>
    <rect style="fill: none; fill-opacity:0; stroke-width: 0.2; stroke: #000000" x="216.121" y="204" width="4" height="6"/>
    <text font-size="1.69333" style="fill: #000000;text-anchor:middle;font-family:monospace;font-style:normal;font-weight:normal" x="218.121" y="207.513">
      <tspan x="218.121" y="207.513">30</tspan>
    </text>
  </g>
  <g>
    <rect style="fill: none; fill-opacity:0; stroke-width: 0.2; stroke: #000000" x="207.735" y="204" width="4" height="6"/>
    <text font-size="1.69333" style="fill: #000000;text-anchor:middle;font-family:monospace;font-style:normal;font-weight:normal" x="209.735" y="207.513">
      <tspan x="209.735" y="207.513">31</tspan>
    </text>
  </g>
  <g>
    <rect style="fill: none; fill-opacity:0; stroke-width: 0.2; stroke: #000000" x="199.349" y="204" width="4" height="6"/>
    <text font-size="1.69333" style="fill: #000000;text-anchor:middle;font-family:monospace;font-style:normal;font-weight:normal" x="201.349" y="207.513">
      <tspan x="201.349" y="207.513">32</tspan>
    </text>
  </g>
  <g>
    <rect style="fill: none; fill-opacity:0; stroke-width: 0.2; stroke: #000000" x="190.867" y="204" width="4" height="6"/>
    <text font-size="1.69333" style="fill: #000000;text-anchor:middle;font-family:monospace;font-style:normal;font-weight:normal" x="192.867" y="207.513">
      <tspan x="192.867" y="207.513">33</tspan>
    </text>
  </g>
  <g>
    <rect style="fill: none; fill-opacity:0; stroke-width: 0.2; stroke: #000000" x="182.386" y="204" width="4" height="6"/>
    <text font-size="1.69333" style="fill: #000000;text-anchor:middle;font-family:monospace;font-style:normal;font-weight:normal" x="184.386" y="207.513">
      <tspan x="184.386" y="207.513">34</tspan>
    </text>
  </g>
  <g>
    <rect style="fill: none; fill-opacity:0; stroke-width: 0.2; stroke: #000000" x="173.904" y="204" width="4" height="6"/>
    <text font-size="1.69333" style="fill: #000000;text-anchor:middle;font-family:monospace;font-style:normal;font-weight:normal" x="175.904" y="207.513">
      <tspan x="175.904" y="207.513">35</tspan>
    </text>
  </g>
  <g>
    <rect style="fill: none; fill-opacity:0; stroke-width: 0.2; stroke: #000000" x="165.735" y="204" width="4" height="6"/>
    <text font-size="1.69333" style="fill: #000000;text-anchor:middle;font-family:monospace;font-style:normal;font-weight:normal" x="167.735" y="207.513">
      <tspan x="167.735" y="207.513">36</tspan>
    </text>
  </g>
  <g>
    <rect style="fill: none; fill-opacity:0; stroke-width: 0.2; stroke: #000000" x="157.735" y="204" width="4" height="6"/>
    <text font-size="1.69333" style="fill: #000000;text-anchor:middle;font-family:monospace;font-style:normal;font-weight:normal" x="159.735" y="207.513">
      <tspan x="159.735" y="207.513">37</tspan>
    </text>
  </g>
  <g>
    <rect style="fill: none; fill-opacity:0; stroke-width: 0.2; stroke: #000000" x="148.506" y="204" width="4" height="6"/>
    <text font-size="1.69333" style="fill: #000000;text-anchor:middle;font-family:monospace;font-style:normal;font-weight:normal" x="150.506" y="207.513">
      <tspan x="150.506" y="207.513">38</tspan>
    </text>
  </g>
  <g>
    <rect style="fill: none; fill-opacity:0; stroke-width: 0.2; stroke: #000000" x="140.313" y="204" width="4" height="6"/>
    <text font-size="1.69333" style="fill: #000000;text-anchor:middle;font-family:monospace;font-style:normal;font-weight:normal" x="142.313" y="207.513">
      <tspan x="142.313" y="207.513">39</tspan>
    </text>
  </g>
  <g>
    <rect style="fill: none; fill-opacity:0; stroke-width: 0.2; stroke: #000000" x="131.735" y="204" width="4" height="6"/>
    <text font-size="1.69333" style="fill: #000000;text-anchor:middle;font-family:monospace;font-style:normal;font-weight:normal" x="133.735" y="207.513">
      <tspan x="133.735" y="207.513">40</tspan>
    </text>
  </g>
  <g>
    <rect style="fill: none; fill-opacity:0; stroke-width: 0.2; stroke: #000000" x="123.349" y="204" width="4" height="6"/>
    <text font-size="1.69333" style="fill: #000000;text-anchor:middle;font-family:monospace;font-style:normal;font-weight:normal" x="125.349" y="207.513">
      <tspan x="125.349" y="207.513">41</tspan>
    </text>
  </g>
  <g>
    <rect style="fill: none; fill-opacity:0; stroke-width: 0.2; stroke: #000000" x="115.157" y="204" width="4" height="6"/>
    <text font-size="1.69333" style="fill: #000000;text-anchor:middle;font-family:monospace;font-style:normal;font-weight:normal" x="117.157" y="207.513">
      <tspan x="117.157" y="207.513">42</tspan>
    </text>
  </g>
  <g>
    <rect style="fill: none; fill-opacity:0; stroke-width: 0.2; stroke: #000000" x="106.867" y="204" width="4" height="6"/>
    <text font-size="1.69333" style="fill: #000000;text-anchor:middle;font-family:monospace;font-style:normal;font-weight:normal" x="108.867" y="207.513">
      <tspan x="108.867" y="207.513">43</tspan>
    </text>
  </g>
  <g>
    <rect style="fill: none; fill-opacity:0; stroke-width: 0.2; stroke: #000000" x="98.6025" y="204" width="4" height="6"/>
    <text font-size="1.69333" style="fill: #000000;text-anchor:middle;font-family:monospace;font-style:normal;font-weight:normal" x="100.602" y="207.513">
      <tspan x="100.602" y="207.513">44</tspan>
    </text>
  </g>
  <g>
    <rect style="fill: none; fill-opacity:0; stroke-width: 0.2; stroke: #000000" x="90.2169" y="204" width="4" height="6"/>
    <text font-size="1.69333" style="fill: #000000;text-anchor:middle;font-family:monospace;font-style:normal;font-weight:normal" x="92.2169" y="207.513">
      <tspan x="92.2169" y="207.513">45</tspan>
    </text>
  </g>
  <g>
    <rect style="fill: none; fill-opacity:0; stroke-width: 0.2; stroke: #000000" x="81.735" y="204" width="4" height="6"/>
    <text font-size="1.69333" style="fill: #000000;text-anchor:middle;font-family:monospace;font-style:normal;font-weight:normal" x="83.735" y="207.513">
      <tspan x="83.735" y="207.513">46</tspan>
    </text>
  </g>
  <g>
    <rect style="fill: none; fill-opacity:0; stroke-width: 0.2; stroke: #000000" x="71.9036" y="198.227" width="6" height="4"/>
    <text font-size="1.69333" style="fill: #000000;text-anchor:middle;font-family:monospace;font-style:normal;font-weight:normal" x="74.9036" y="200.741">
      <tspan x="74.9036" y="200.741">01</tspan>
    </text>
  </g>
  <g>
    <rect style="fill: none; fill-opacity:0; stroke-width: 0.2; stroke: #000000" x="71.9036" y="190.035" width="6" height="4"/>
    <text font-size="1.69333" style="fill: #000000;text-anchor:middle;font-family:monospace;font-style:normal;font-weight:normal" x="74.9036" y="192.548">
      <tspan x="74.9036" y="192.548">02</tspan>
    </text>
  </g>
  <g>
    <rect style="fill: none; fill-opacity:0; stroke-width: 0.2; stroke: #000000" x="71.9036" y="181.649" width="6" height="4"/>
    <text font-size="1.69333" style="fill: #000000;text-anchor:middle;font-family:monospace;font-style:normal;font-weight:normal" x="74.9036" y="184.163">
      <tspan x="74.9036" y="184.163">03</tspan>
    </text>
  </g>
  <g>
    <rect style="fill: none; fill-opacity:0; stroke-width: 0.2; stroke: #000000" x="71.9036" y="173.071" width="6" height="4"/>
    <text font-size="1.69333" style="fill: #000000;text-anchor:middle;font-family:monospace;font-style:normal;font-weight:normal" x="74.9036" y="175.584">
      <tspan x="74.9036" y="175.584">04</tspan>
    </text>
  </g>
  <g>
    <rect style="fill: none; fill-opacity:0; stroke-width: 0.2; stroke: #000000" x="71.9036" y="164.589" width="6" height="4"/>
    <text font-size="1.69333" style="fill: #000000;text-anchor:middle;font-family:monospace;font-style:normal;font-weight:normal" x="74.9036" y="167.102">
      <tspan x="74.9036" y="167.102">05</tspan>
    </text>
  </g>
  <g>
    <rect style="fill: none; fill-opacity:0; stroke-width: 0.2; stroke: #000000" x="71.9036" y="155.625" width="6" height="4"/>
    <text font-size="1.69333" style="fill: #000000;text-anchor:middle;font-family:monospace;font-style:normal;font-weight:normal" x="74.9036" y="158.138">
      <tspan x="74.9036" y="158.138">06</tspan>
    </text>
  </g>
  <g>
    <ellipse style="fill: none; fill-opacity:0; stroke-width: 0.2; stroke: #000000" cx="165.904" cy="196" rx="2" ry="2"/>
    <text font-size="1.69333" style="fill: #000000;text-anchor:middle;font-family:monospace;font-style:normal;font-weight:normal" x="165.904" y="196.513">
      <tspan x="165.904" y="196.513">48</tspan>
    </text>
  </g>
  <g>
    <ellipse style="fill: none; fill-opacity:0; stroke-width: 0.2; stroke: #000000" cx="137.904" cy="196" rx="2" ry="2"/>
    <text font-size="1.69333" style="fill: #000000;text-anchor:middle;font-family:monospace;font-style:normal;font-weight:normal" x="137.904" y="196.513">
      <tspan x="137.904" y="196.513">47</tspan>
    </text>
  </g>
  <g>
    <ellipse style="fill: none; fill-opacity:0; stroke-width: 0.2; stroke: #000000" cx="151.904" cy="178.675" rx="2" ry="2"/>
    <text font-size="1.69333" style="fill: #000000;text-anchor:middle;font-family:monospace;font-style:normal;font-weight:normal" x="151.904" y="179.188">
      <tspan x="151.904" y="179.188">49</tspan>
    </text>
  </g>
  <g>
    <ellipse style="fill: none; fill-opacity:0; stroke-width: 0.2; stroke: #000000" cx="165.904" cy="162" rx="2" ry="2"/>
    <text font-size="1.69333" style="fill: #000000;text-anchor:middle;font-family:monospace;font-style:normal;font-weight:normal" x="165.904" y="162.513">
      <tspan x="165.904" y="162.513">51</tspan>
    </text>
  </g>
  <g>
    <ellipse style="fill: none; fill-opacity:0; stroke-width: 0.2; stroke: #000000" cx="137.904" cy="162" rx="2" ry="2"/>
    <text font-size="1.69333" style="fill: #000000;text-anchor:middle;font-family:monospace;font-style:normal;font-weight:normal" x="137.904" y="162.513">
      <tspan x="137.904" y="162.513">50</tspan>
    </text>
  </g>
  <g>
    <ellipse style="fill: #000000" cx="77.1759" cy="205.176" rx="1.17593" ry="1.17593"/>
    <ellipse style="fill: none; fill-opacity:0; stroke-width: 0.2; stroke: #000000" cx="77.1759" cy="205.176" rx="1.17593" ry="1.17593"/>
    <text font-size="1.69333" style="fill: #000000;text-anchor:middle;font-family:monospace;font-style:normal;font-weight:normal" x="77.1759" y="205.689">
      <tspan x="77.1759" y="205.689"></tspan>
    </text>
  </g>
  <polyline style="fill: none; fill-opacity:0; stroke-width: 2; stroke: #000000" points="107.228,172.637 107.228,172.637 "/>
  <polyline style="fill: none; fill-opacity:0; stroke-width: 2; stroke: #000000" points="107.228,172.637 107.228,172.637 "/>
  <polyline style="fill: none; fill-opacity:0; stroke-width: 2; stroke: #000000" points="152,179 152,179 "/>
  <polyline style="fill: none; fill-opacity:0; stroke-width: 2; stroke: #000000" points="107.228,172.637 107.228,172.637 "/>
  <g>
    <polyline style="fill: none; fill-opacity:0; stroke-width: 1; stroke: #000000" points="74,300 42,272 42,220 71.9036,192.035 "/>
    <path style="fill: #000000" d="M 74 300 C 73.3415,300.753 71.9304,300.847 71.1778,300.188 C 70.4253,299.53 70.3312,298.119 70.9897,297.366 C 71.6482,296.613 73.0593,296.519 73.8119,297.178 C 74.5644,297.836 74.6585,299.247 74,300z"/>
    <path style="fill: none; fill-opacity:0; stroke-width: 1; stroke: #000000" d="M 74 300 C 73.3415,300.753 71.9304,300.847 71.1778,300.188 C 70.4253,299.53 70.3312,298.119 70.9897,297.366 C 71.6482,296.613 73.0593,296.519 73.8119,297.178 C 74.5644,297.836 74.6585,299.247 74,300"/>
  </g>
  <g>
    <polyline style="fill: none; fill-opacity:0; stroke-width: 1; stroke: #000000" points="100,298 86,296 79.8485,290.437 72,288 50,268 50,222 71.9036,200.227 "/>
    <path style="fill: #000000" d="M 100 298 C 99.8586,298.99 98.7272,299.838 97.7373,299.697 C 96.7473,299.556 95.8988,298.424 96.0402,297.434 C 96.1816,296.444 97.313,295.596 98.3029,295.737 C 99.2929,295.879 100.141,297.01 100,298z"/>
    <path style="fill: none; fill-opacity:0; stroke-width: 1; stroke: #000000" d="M 100 298 C 99.8586,298.99 98.7272,299.838 97.7373,299.697 C 96.7473,299.556 95.8988,298.424 96.0402,297.434 C 96.1816,296.444 97.313,295.596 98.3029,295.737 C 99.2929,295.879 100.141,297.01 100,298"/>
  </g>
  <g>
    <polyline style="fill: none; fill-opacity:0; stroke-width: 1; stroke: #000000" points="83.735,210 56,238 56,260 90,288 "/>
    <path style="fill: #000000" d="M 90 288 C 89.3643,288.772 87.9567,288.908 87.1847,288.272 C 86.4128,287.637 86.2766,286.229 86.9123,285.457 C 87.548,284.685 88.9556,284.549 89.7276,285.185 C 90.4995,285.82 90.6357,287.228 90,288z"/>
    <path style="fill: none; fill-opacity:0; stroke-width: 1; stroke: #000000" d="M 90 288 C 89.3643,288.772 87.9567,288.908 87.1847,288.272 C 86.4128,287.637 86.2766,286.229 86.9123,285.457 C 87.548,284.685 88.9556,284.549 89.7276,285.185 C 90.4995,285.82 90.6357,287.228 90,288"/>
  </g>
  <g>
    <polyline style="fill: none; fill-opacity:0; stroke-width: 1; stroke: #000000" points="92.2169,210 62,240 62,254 78,268 84,268 110,288 "/>
    <path style="fill: #000000" d="M 110 288 C 109.39,288.793 107.988,288.976 107.195,288.366 C 106.403,287.756 106.22,286.354 106.83,285.561 C 107.439,284.769 108.842,284.586 109.634,285.195 C 110.427,285.805 110.61,287.207 110,288z"/>
    <path style="fill: none; fill-opacity:0; stroke-width: 1; stroke: #000000" d="M 110 288 C 109.39,288.793 107.988,288.976 107.195,288.366 C 106.403,287.756 106.22,286.354 106.83,285.561 C 107.439,284.769 108.842,284.586 109.634,285.195 C 110.427,285.805 110.61,287.207 110,288"/>
  </g>
  <g>
    <polyline style="fill: none; fill-opacity:0; stroke-width: 1; stroke: #000000" points="108.867,210 110,266 118,274 118,300 "/>
    <path style="fill: #000000" d="M 118 300 C 117,300 116,299 116,298 C 116,297 117,296 118,296 C 119,296 120,297 120,298 C 120,299 119,300 118,300z"/>
    <path style="fill: none; fill-opacity:0; stroke-width: 1; stroke: #000000" d="M 118 300 C 117,300 116,299 116,298 C 116,297 117,296 118,296 C 119,296 120,297 120,298 C 120,299 119,300 118,300"/>
  </g>
  <g>
    <polyline style="fill: none; fill-opacity:0; stroke-width: 1; stroke: #000000" points="117.157,210 118,260 130,276 130,288 "/>
    <path style="fill: #000000" d="M 130 288 C 129,288 128,287 128,286 C 128,285 129,284 130,284 C 131,284 132,285 132,286 C 132,287 131,288 130,288z"/>
    <path style="fill: none; fill-opacity:0; stroke-width: 1; stroke: #000000" d="M 130 288 C 129,288 128,287 128,286 C 128,285 129,284 130,284 C 131,284 132,285 132,286 C 132,287 131,288 130,288"/>
  </g>
  <g>
    <polyline style="fill: none; fill-opacity:0; stroke-width: 1; stroke: #000000" points="140,300 140,276 126,252 125.349,210 "/>
    <path style="fill: #000000" d="M 140 300 C 139,300 138,299 138,298 C 138,297 139,296 140,296 C 141,296 142,297 142,298 C 142,299 141,300 140,300z"/>
    <path style="fill: none; fill-opacity:0; stroke-width: 1; stroke: #000000" d="M 140 300 C 139,300 138,299 138,298 C 138,297 139,296 140,296 C 141,296 142,297 142,298 C 142,299 141,300 140,300"/>
  </g>
  <g>
    <polyline style="fill: none; fill-opacity:0; stroke-width: 1; stroke: #000000" points="133.735,210 134,216 130,216 130,250 150,288 "/>
    <path style="fill: #000000" d="M 150 288 C 149.115,288.466 147.764,288.047 147.299,287.162 C 146.833,286.277 147.252,284.926 148.137,284.46 C 149.022,283.995 150.373,284.414 150.838,285.299 C 151.304,286.184 150.885,287.534 150,288z"/>
    <path style="fill: none; fill-opacity:0; stroke-width: 1; stroke: #000000" d="M 150 288 C 149.115,288.466 147.764,288.047 147.299,287.162 C 146.833,286.277 147.252,284.926 148.137,284.46 C 149.022,283.995 150.373,284.414 150.838,285.299 C 151.304,286.184 150.885,287.534 150,288"/>
  </g>
  <g>
    <rect style="fill: #000000" x="98.5731" y="232" width="4" height="14"/>
    <rect style="fill: none; fill-opacity:0; stroke-width: 2; stroke: #000000" x="98.5731" y="232" width="4" height="14"/>
  </g>
  <polyline style="fill: none; fill-opacity:0; stroke-width: 1; stroke: #000000" points="100.573,232 100.602,210 "/>
  <g>
    <line style="fill: none; fill-opacity:0; stroke-width: 1; stroke: #000000" x1="100.573" y1="246" x2="100.573" y2="256"/>
    <path style="fill: #000000" d="M 100.573 256 C 99.5731,256 98.5731,255 98.5731,254 C 98.5731,253 99.5731,252 100.573,252 C 101.573,252 102.573,253 102.573,254 C 102.573,255 101.573,256 100.573,256z"/>
    <path style="fill: none; fill-opacity:0; stroke-width: 1; stroke: #000000" d="M 100.573 256 C 99.5731,256 98.5731,255 98.5731,254 C 98.5731,253 99.5731,252 100.573,252 C 101.573,252 102.573,253 102.573,254 C 102.573,255 101.573,256 100.573,256"/>
  </g>
  <polyline style="fill: none; fill-opacity:0; stroke-width: 1; stroke: #000000" points="201.518,148 202,84 210,84 210,76 202,76 202,70 220.083,69.7515 220,52 228,52 228,70 250,70 "/>
  <polyline style="fill: none; fill-opacity:0; stroke-width: 1; stroke: #000000" points="209.904,148 210.096,122 210.096,110 210.193,96 228,78 238,78 238,102 "/>
  <polyline style="fill: none; fill-opacity:0; stroke-width: 1; stroke: #000000" points="184.554,148 184.954,132 190,130 190,124 "/>
  <polyline style="fill: none; fill-opacity:0; stroke-width: 1; stroke: #000000" points="193.036,148 192.958,136.134 198,132 198,102 "/>
  <polyline style="fill: none; fill-opacity:0; stroke-width: 1; stroke: #000000" points="167.904,148 168,140 180,132 180,102 "/>
  <polyline style="fill: none; fill-opacity:0; stroke-width: 1; stroke: #000000" points="159.904,148 160,132 170,126 170,124 "/>
  <polyline style="fill: none; fill-opacity:0; stroke-width: 1; stroke: #000000" points="150.675,148 150,132 158,128 158,124 "/>
  <polyline style="fill: none; fill-opacity:0; stroke-width: 1; stroke: #000000" points="142.482,148 142.477,123.84 "/>
  <polyline style="fill: none; fill-opacity:0; stroke-width: 1; stroke: #000000" points="92.3855,148 92,124 "/>
  <polyline style="fill: none; fill-opacity:0; stroke-width: 1; stroke: #000000" points="117.325,148 117.318,124 "/>
  <polyline style="fill: none; fill-opacity:0; stroke-width: 1; stroke: #000000" points="133.904,148 134,130 130,124 "/>
</svg>
