<?xml version="1.0" encoding="UTF-8" standalone="no"?>
<!DOCTYPE svg PUBLIC "-//W3C//DTD SVG 1.0//EN" "http://www.w3.org/TR/2001/PR-SVG-20010719/DTD/svg10.dtd">
<svg width="23cm" height="12cm" viewBox="23 71 460 234" xmlns="http://www.w3.org/2000/svg" xmlns:xlink="http://www.w3.org/1999/xlink">
  <g>
    <rect style="fill: none; fill-opacity:0; stroke-width: 2; stroke: #000000" x="72" y="148" width="160" height="62"/>
    <text font-size="11.2889" style="fill: #000000;text-anchor:middle;font-family:monospace;font-style:normal;font-weight:normal" x="152" y="175.367">
      <tspan x="152" y="175.367">Phison</tspan>
      <tspan x="152" y="189.479">PS8211-0</tspan>
    </text>
  </g>
  <g>
    <rect style="fill: none; fill-opacity:0; stroke-width: 0.2; stroke: #000000" x="225.904" y="181.359" width="6" height="4"/>
    <text font-size="1.69333" style="fill: #000000;text-anchor:middle;font-family:monospace;font-style:normal;font-weight:normal" x="228.904" y="183.873">
      <tspan x="228.904" y="183.873">29</tspan>
    </text>
  </g>
  <g>
    <rect style="fill: none; fill-opacity:0; stroke-width: 0.2; stroke: #000000" x="225.904" y="189.876" width="6" height="4"/>
    <text font-size="1.69333" style="fill: #000000;text-anchor:middle;font-family:monospace;font-style:normal;font-weight:normal" x="228.904" y="192.39">
      <tspan x="228.904" y="192.39">28</tspan>
    </text>
  </g>
  <g>
    <rect style="fill: none; fill-opacity:0; stroke-width: 0.2; stroke: #000000" x="225.904" y="198.393" width="6" height="4"/>
    <text font-size="1.69333" style="fill: #000000;text-anchor:middle;font-family:monospace;font-style:normal;font-weight:normal" x="228.904" y="200.907">
      <tspan x="228.904" y="200.907">27</tspan>
    </text>
  </g>
  <g>
    <rect style="fill: none; fill-opacity:0; stroke-width: 0.2; stroke: #000000" x="225.904" y="155.808" width="6" height="4"/>
    <text font-size="1.69333" style="fill: #000000;text-anchor:middle;font-family:monospace;font-style:normal;font-weight:normal" x="228.904" y="158.321">
      <tspan x="228.904" y="158.321">26</tspan>
    </text>
  </g>
  <g>
    <rect style="fill: none; fill-opacity:0; stroke-width: 0.2; stroke: #000000" x="225.904" y="164.325" width="6" height="4"/>
    <text font-size="1.69333" style="fill: #000000;text-anchor:middle;font-family:monospace;font-style:normal;font-weight:normal" x="228.904" y="166.838">
      <tspan x="228.904" y="166.838">25</tspan>
    </text>
  </g>
  <g>
    <rect style="fill: none; fill-opacity:0; stroke-width: 0.2; stroke: #000000" x="225.904" y="172.842" width="6" height="4"/>
    <text font-size="1.69333" style="fill: #000000;text-anchor:middle;font-family:monospace;font-style:normal;font-weight:normal" x="228.904" y="175.355">
      <tspan x="228.904" y="175.355">24</tspan>
    </text>
  </g>
  <g>
    <rect style="fill: none; fill-opacity:0; stroke-width: 0.2; stroke: #000000" x="193.311" y="148" width="4" height="6"/>
    <text font-size="1.69333" style="fill: #000000;text-anchor:middle;font-family:monospace;font-style:normal;font-weight:normal" x="195.311" y="151.513">
      <tspan x="195.311" y="151.513">23</tspan>
    </text>
  </g>
  <g>
    <rect style="fill: none; fill-opacity:0; stroke-width: 0.2; stroke: #000000" x="201.804" y="148" width="4" height="6"/>
    <text font-size="1.69333" style="fill: #000000;text-anchor:middle;font-family:monospace;font-style:normal;font-weight:normal" x="203.804" y="151.513">
      <tspan x="203.804" y="151.513">22</tspan>
    </text>
  </g>
  <g>
    <rect style="fill: none; fill-opacity:0; stroke-width: 0.2; stroke: #000000" x="210.297" y="148" width="4" height="6"/>
    <text font-size="1.69333" style="fill: #000000;text-anchor:middle;font-family:monospace;font-style:normal;font-weight:normal" x="212.297" y="151.513">
      <tspan x="212.297" y="151.513">21</tspan>
    </text>
  </g>
  <g>
    <rect style="fill: none; fill-opacity:0; stroke-width: 0.2; stroke: #000000" x="218.79" y="148" width="4" height="6"/>
    <text font-size="1.69333" style="fill: #000000;text-anchor:middle;font-family:monospace;font-style:normal;font-weight:normal" x="220.79" y="151.513">
      <tspan x="220.79" y="151.513">20</tspan>
    </text>
  </g>
  <g>
    <rect style="fill: none; fill-opacity:0; stroke-width: 0.2; stroke: #000000" x="159.34" y="148" width="4" height="6"/>
    <text font-size="1.69333" style="fill: #000000;text-anchor:middle;font-family:monospace;font-style:normal;font-weight:normal" x="161.34" y="151.513">
      <tspan x="161.34" y="151.513">19</tspan>
    </text>
  </g>
  <g>
    <rect style="fill: none; fill-opacity:0; stroke-width: 0.2; stroke: #000000" x="167.833" y="148" width="4" height="6"/>
    <text font-size="1.69333" style="fill: #000000;text-anchor:middle;font-family:monospace;font-style:normal;font-weight:normal" x="169.833" y="151.513">
      <tspan x="169.833" y="151.513">18</tspan>
    </text>
  </g>
  <g>
    <rect style="fill: none; fill-opacity:0; stroke-width: 0.2; stroke: #000000" x="176.325" y="148" width="4" height="6"/>
    <text font-size="1.69333" style="fill: #000000;text-anchor:middle;font-family:monospace;font-style:normal;font-weight:normal" x="178.325" y="151.513">
      <tspan x="178.325" y="151.513">17</tspan>
    </text>
  </g>
  <g>
    <rect style="fill: none; fill-opacity:0; stroke-width: 0.2; stroke: #000000" x="184.818" y="148" width="4" height="6"/>
    <text font-size="1.69333" style="fill: #000000;text-anchor:middle;font-family:monospace;font-style:normal;font-weight:normal" x="186.818" y="151.513">
      <tspan x="186.818" y="151.513">16</tspan>
    </text>
  </g>
  <g>
    <rect style="fill: none; fill-opacity:0; stroke-width: 0.2; stroke: #000000" x="125.368" y="148" width="4" height="6"/>
    <text font-size="1.69333" style="fill: #000000;text-anchor:middle;font-family:monospace;font-style:normal;font-weight:normal" x="127.368" y="151.513">
      <tspan x="127.368" y="151.513">15</tspan>
    </text>
  </g>
  <g>
    <rect style="fill: none; fill-opacity:0; stroke-width: 0.2; stroke: #000000" x="133.861" y="148" width="4" height="6"/>
    <text font-size="1.69333" style="fill: #000000;text-anchor:middle;font-family:monospace;font-style:normal;font-weight:normal" x="135.861" y="151.513">
      <tspan x="135.861" y="151.513">14</tspan>
    </text>
  </g>
  <g>
    <rect style="fill: none; fill-opacity:0; stroke-width: 0.2; stroke: #000000" x="142.354" y="148" width="4" height="6"/>
    <text font-size="1.69333" style="fill: #000000;text-anchor:middle;font-family:monospace;font-style:normal;font-weight:normal" x="144.354" y="151.513">
      <tspan x="144.354" y="151.513">13</tspan>
    </text>
  </g>
  <g>
    <rect style="fill: none; fill-opacity:0; stroke-width: 0.2; stroke: #000000" x="150.847" y="148" width="4" height="6"/>
    <text font-size="1.69333" style="fill: #000000;text-anchor:middle;font-family:monospace;font-style:normal;font-weight:normal" x="152.847" y="151.513">
      <tspan x="152.847" y="151.513">12</tspan>
    </text>
  </g>
  <g>
    <rect style="fill: none; fill-opacity:0; stroke-width: 0.2; stroke: #000000" x="82.9036" y="148" width="4" height="6"/>
    <text font-size="1.69333" style="fill: #000000;text-anchor:middle;font-family:monospace;font-style:normal;font-weight:normal" x="84.9036" y="151.513">
      <tspan x="84.9036" y="151.513">11</tspan>
    </text>
  </g>
  <g>
    <rect style="fill: none; fill-opacity:0; stroke-width: 0.2; stroke: #000000" x="91.3965" y="148" width="4" height="6"/>
    <text font-size="1.69333" style="fill: #000000;text-anchor:middle;font-family:monospace;font-style:normal;font-weight:normal" x="93.3965" y="151.513">
      <tspan x="93.3965" y="151.513">10</tspan>
    </text>
  </g>
  <g>
    <rect style="fill: none; fill-opacity:0; stroke-width: 0.2; stroke: #000000" x="99.8894" y="148" width="4" height="6"/>
    <text font-size="1.69333" style="fill: #000000;text-anchor:middle;font-family:monospace;font-style:normal;font-weight:normal" x="101.889" y="151.513">
      <tspan x="101.889" y="151.513">09</tspan>
    </text>
  </g>
  <g>
    <rect style="fill: none; fill-opacity:0; stroke-width: 0.2; stroke: #000000" x="108.382" y="148" width="4" height="6"/>
    <text font-size="1.69333" style="fill: #000000;text-anchor:middle;font-family:monospace;font-style:normal;font-weight:normal" x="110.382" y="151.513">
      <tspan x="110.382" y="151.513">08</tspan>
    </text>
  </g>
  <g>
    <rect style="fill: none; fill-opacity:0; stroke-width: 0.2; stroke: #000000" x="116.875" y="148" width="4" height="6"/>
    <text font-size="1.69333" style="fill: #000000;text-anchor:middle;font-family:monospace;font-style:normal;font-weight:normal" x="118.875" y="151.513">
      <tspan x="118.875" y="151.513">07</tspan>
    </text>
  </g>
  <g>
    <rect style="fill: none; fill-opacity:0; stroke-width: 0.2; stroke: #000000" x="193.377" y="204" width="4" height="6"/>
    <text font-size="1.69333" style="fill: #000000;text-anchor:middle;font-family:monospace;font-style:normal;font-weight:normal" x="195.377" y="207.513">
      <tspan x="195.377" y="207.513">30</tspan>
    </text>
  </g>
  <g>
    <rect style="fill: none; fill-opacity:0; stroke-width: 0.2; stroke: #000000" x="201.816" y="204" width="4" height="6"/>
    <text font-size="1.69333" style="fill: #000000;text-anchor:middle;font-family:monospace;font-style:normal;font-weight:normal" x="203.816" y="207.513">
      <tspan x="203.816" y="207.513">31</tspan>
    </text>
  </g>
  <g>
    <rect style="fill: none; fill-opacity:0; stroke-width: 0.2; stroke: #000000" x="210.255" y="204" width="4" height="6"/>
    <text font-size="1.69333" style="fill: #000000;text-anchor:middle;font-family:monospace;font-style:normal;font-weight:normal" x="212.255" y="207.513">
      <tspan x="212.255" y="207.513">32</tspan>
    </text>
  </g>
  <g>
    <rect style="fill: none; fill-opacity:0; stroke-width: 0.2; stroke: #000000" x="218.694" y="204" width="4" height="6"/>
    <text font-size="1.69333" style="fill: #000000;text-anchor:middle;font-family:monospace;font-style:normal;font-weight:normal" x="220.694" y="207.513">
      <tspan x="220.694" y="207.513">33</tspan>
    </text>
  </g>
  <g>
    <rect style="fill: none; fill-opacity:0; stroke-width: 0.2; stroke: #000000" x="159.62" y="204" width="4" height="6"/>
    <text font-size="1.69333" style="fill: #000000;text-anchor:middle;font-family:monospace;font-style:normal;font-weight:normal" x="161.62" y="207.513">
      <tspan x="161.62" y="207.513">34</tspan>
    </text>
  </g>
  <g>
    <rect style="fill: none; fill-opacity:0; stroke-width: 0.2; stroke: #000000" x="168.059" y="204" width="4" height="6"/>
    <text font-size="1.69333" style="fill: #000000;text-anchor:middle;font-family:monospace;font-style:normal;font-weight:normal" x="170.059" y="207.513">
      <tspan x="170.059" y="207.513">35</tspan>
    </text>
  </g>
  <g>
    <rect style="fill: none; fill-opacity:0; stroke-width: 0.2; stroke: #000000" x="176.498" y="204" width="4" height="6"/>
    <text font-size="1.69333" style="fill: #000000;text-anchor:middle;font-family:monospace;font-style:normal;font-weight:normal" x="178.498" y="207.513">
      <tspan x="178.498" y="207.513">36</tspan>
    </text>
  </g>
  <g>
    <rect style="fill: none; fill-opacity:0; stroke-width: 0.2; stroke: #000000" x="184.938" y="204" width="4" height="6"/>
    <text font-size="1.69333" style="fill: #000000;text-anchor:middle;font-family:monospace;font-style:normal;font-weight:normal" x="186.938" y="207.513">
      <tspan x="186.938" y="207.513">37</tspan>
    </text>
  </g>
  <g>
    <rect style="fill: none; fill-opacity:0; stroke-width: 0.2; stroke: #000000" x="125.863" y="204" width="4" height="6"/>
    <text font-size="1.69333" style="fill: #000000;text-anchor:middle;font-family:monospace;font-style:normal;font-weight:normal" x="127.863" y="207.513">
      <tspan x="127.863" y="207.513">38</tspan>
    </text>
  </g>
  <g>
    <rect style="fill: none; fill-opacity:0; stroke-width: 0.2; stroke: #000000" x="134.303" y="204" width="4" height="6"/>
    <text font-size="1.69333" style="fill: #000000;text-anchor:middle;font-family:monospace;font-style:normal;font-weight:normal" x="136.303" y="207.513">
      <tspan x="136.303" y="207.513">39</tspan>
    </text>
  </g>
  <g>
    <rect style="fill: none; fill-opacity:0; stroke-width: 0.2; stroke: #000000" x="142.742" y="204" width="4" height="6"/>
    <text font-size="1.69333" style="fill: #000000;text-anchor:middle;font-family:monospace;font-style:normal;font-weight:normal" x="144.742" y="207.513">
      <tspan x="144.742" y="207.513">40</tspan>
    </text>
  </g>
  <g>
    <rect style="fill: none; fill-opacity:0; stroke-width: 0.2; stroke: #000000" x="151.181" y="204" width="4" height="6"/>
    <text font-size="1.69333" style="fill: #000000;text-anchor:middle;font-family:monospace;font-style:normal;font-weight:normal" x="153.181" y="207.513">
      <tspan x="153.181" y="207.513">41</tspan>
    </text>
  </g>
  <g>
    <rect style="fill: none; fill-opacity:0; stroke-width: 0.2; stroke: #000000" x="108.985" y="204" width="4" height="6"/>
    <text font-size="1.69333" style="fill: #000000;text-anchor:middle;font-family:monospace;font-style:normal;font-weight:normal" x="110.985" y="207.513">
      <tspan x="110.985" y="207.513">42</tspan>
    </text>
  </g>
  <g>
    <rect style="fill: none; fill-opacity:0; stroke-width: 0.2; stroke: #000000" x="117.424" y="204" width="4" height="6"/>
    <text font-size="1.69333" style="fill: #000000;text-anchor:middle;font-family:monospace;font-style:normal;font-weight:normal" x="119.424" y="207.513">
      <tspan x="119.424" y="207.513">43</tspan>
    </text>
  </g>
  <g>
    <rect style="fill: none; fill-opacity:0; stroke-width: 0.2; stroke: #000000" x="100.546" y="204" width="4" height="6"/>
    <text font-size="1.69333" style="fill: #000000;text-anchor:middle;font-family:monospace;font-style:normal;font-weight:normal" x="102.546" y="207.513">
      <tspan x="102.546" y="207.513">44</tspan>
    </text>
  </g>
  <g>
    <rect style="fill: none; fill-opacity:0; stroke-width: 0.2; stroke: #000000" x="83.6674" y="204" width="4" height="6"/>
    <text font-size="1.69333" style="fill: #000000;text-anchor:middle;font-family:monospace;font-style:normal;font-weight:normal" x="85.6674" y="207.513">
      <tspan x="85.6674" y="207.513">45</tspan>
    </text>
  </g>
  <g>
    <rect style="fill: none; fill-opacity:0; stroke-width: 0.2; stroke: #000000" x="92.1066" y="204" width="4" height="6"/>
    <text font-size="1.69333" style="fill: #000000;text-anchor:middle;font-family:monospace;font-style:normal;font-weight:normal" x="94.1066" y="207.513">
      <tspan x="94.1066" y="207.513">46</tspan>
    </text>
  </g>
  <g>
    <rect style="fill: none; fill-opacity:0; stroke-width: 0.2; stroke: #000000" x="71.9036" y="181.464" width="6" height="4"/>
    <text font-size="1.69333" style="fill: #000000;text-anchor:middle;font-family:monospace;font-style:normal;font-weight:normal" x="74.9036" y="183.978">
      <tspan x="74.9036" y="183.978">01</tspan>
    </text>
  </g>
  <g>
    <rect style="fill: none; fill-opacity:0; stroke-width: 0.2; stroke: #000000" x="71.9036" y="189.929" width="6" height="4"/>
    <text font-size="1.69333" style="fill: #000000;text-anchor:middle;font-family:monospace;font-style:normal;font-weight:normal" x="74.9036" y="192.442">
      <tspan x="74.9036" y="192.442">02</tspan>
    </text>
  </g>
  <g>
    <rect style="fill: none; fill-opacity:0; stroke-width: 0.2; stroke: #000000" x="71.9036" y="198.393" width="6" height="4"/>
    <text font-size="1.69333" style="fill: #000000;text-anchor:middle;font-family:monospace;font-style:normal;font-weight:normal" x="74.9036" y="200.907">
      <tspan x="74.9036" y="200.907">03</tspan>
    </text>
  </g>
  <g>
    <rect style="fill: none; fill-opacity:0; stroke-width: 0.2; stroke: #000000" x="71.9036" y="156.071" width="6" height="4"/>
    <text font-size="1.69333" style="fill: #000000;text-anchor:middle;font-family:monospace;font-style:normal;font-weight:normal" x="74.9036" y="158.584">
      <tspan x="74.9036" y="158.584">04</tspan>
    </text>
  </g>
  <g>
    <rect style="fill: none; fill-opacity:0; stroke-width: 0.2; stroke: #000000" x="71.9036" y="164.535" width="6" height="4"/>
    <text font-size="1.69333" style="fill: #000000;text-anchor:middle;font-family:monospace;font-style:normal;font-weight:normal" x="74.9036" y="167.049">
      <tspan x="74.9036" y="167.049">05</tspan>
    </text>
  </g>
  <g>
    <rect style="fill: none; fill-opacity:0; stroke-width: 0.2; stroke: #000000" x="71.9036" y="173" width="6" height="4"/>
    <text font-size="1.69333" style="fill: #000000;text-anchor:middle;font-family:monospace;font-style:normal;font-weight:normal" x="74.9036" y="175.513">
      <tspan x="74.9036" y="175.513">06</tspan>
    </text>
  </g>
  <g>
    <ellipse style="fill: none; fill-opacity:0; stroke-width: 0.2; stroke: #000000" cx="165.904" cy="196" rx="2" ry="2"/>
    <text font-size="1.69333" style="fill: #000000;text-anchor:middle;font-family:monospace;font-style:normal;font-weight:normal" x="165.904" y="196.513">
      <tspan x="165.904" y="196.513">48</tspan>
    </text>
  </g>
  <g>
    <ellipse style="fill: none; fill-opacity:0; stroke-width: 0.2; stroke: #000000" cx="137.904" cy="196" rx="2" ry="2"/>
    <text font-size="1.69333" style="fill: #000000;text-anchor:middle;font-family:monospace;font-style:normal;font-weight:normal" x="137.904" y="196.513">
      <tspan x="137.904" y="196.513">47</tspan>
    </text>
  </g>
  <g>
    <ellipse style="fill: none; fill-opacity:0; stroke-width: 0.2; stroke: #000000" cx="151.904" cy="178.675" rx="2" ry="2"/>
    <text font-size="1.69333" style="fill: #000000;text-anchor:middle;font-family:monospace;font-style:normal;font-weight:normal" x="151.904" y="179.188">
      <tspan x="151.904" y="179.188">49</tspan>
    </text>
  </g>
  <g>
    <ellipse style="fill: none; fill-opacity:0; stroke-width: 0.2; stroke: #000000" cx="165.904" cy="162" rx="2" ry="2"/>
    <text font-size="1.69333" style="fill: #000000;text-anchor:middle;font-family:monospace;font-style:normal;font-weight:normal" x="165.904" y="162.513">
      <tspan x="165.904" y="162.513">51</tspan>
    </text>
  </g>
  <g>
    <ellipse style="fill: none; fill-opacity:0; stroke-width: 0.2; stroke: #000000" cx="137.904" cy="162" rx="2" ry="2"/>
    <text font-size="1.69333" style="fill: #000000;text-anchor:middle;font-family:monospace;font-style:normal;font-weight:normal" x="137.904" y="162.513">
      <tspan x="137.904" y="162.513">50</tspan>
    </text>
  </g>
  <g>
    <ellipse style="fill: #000000" cx="85.1759" cy="196.176" rx="1.17593" ry="1.17593"/>
    <ellipse style="fill: none; fill-opacity:0; stroke-width: 0.2; stroke: #000000" cx="85.1759" cy="196.176" rx="1.17593" ry="1.17593"/>
    <text font-size="1.69333" style="fill: #000000;text-anchor:middle;font-family:monospace;font-style:normal;font-weight:normal" x="85.1759" y="196.689">
      <tspan x="85.1759" y="196.689"></tspan>
    </text>
  </g>
  <polyline style="fill: none; fill-opacity:0; stroke-width: 2; stroke: #000000" points="212.863,185.981 212.863,185.981 "/>
  <polyline style="fill: none; fill-opacity:0; stroke-width: 2; stroke: #000000" points="212.863,185.981 212.863,185.981 "/>
  <polyline style="fill: none; fill-opacity:0; stroke-width: 2; stroke: #000000" points="152,179 152,179 "/>
  <polyline style="fill: none; fill-opacity:0; stroke-width: 2; stroke: #000000" points="212.863,185.981 212.863,185.981 "/>
  <polyline style="fill: none; fill-opacity:0; stroke-width: 1; stroke: #000000" points="93.3965,148 93.4438,120.194 "/>
  <polyline style="fill: none; fill-opacity:0; stroke-width: 1; stroke: #000000" points="118.875,148 118.734,137.141 116.653,134.614 116.576,123.67 "/>
  <polyline style="fill: none; fill-opacity:0; stroke-width: 1; stroke: #000000" points="135.861,148 135.829,130.006 129.521,123.679 "/>
  <polyline style="fill: none; fill-opacity:0; stroke-width: 1; stroke: #000000" points="144.354,148 144.297,123.785 "/>
  <polyline style="fill: none; fill-opacity:0; stroke-width: 1; stroke: #000000" points="152.847,148 152.923,135.06 157.383,130.452 157.242,123.795 "/>
  <polyline style="fill: none; fill-opacity:0; stroke-width: 1; stroke: #000000" points="161.34,148 161.324,133.714 170.476,123.805 "/>
  <polyline style="fill: none; fill-opacity:0; stroke-width: 1; stroke: #000000" points="179.638,101.432 179.638,126.974 169.968,136.539 169.833,148 "/>
  <polyline style="fill: none; fill-opacity:0; stroke-width: 1; stroke: #000000" points="186.818,148 186.786,135.173 189.624,131.809 189.685,123.814 "/>
  <polyline style="fill: none; fill-opacity:0; stroke-width: 1; stroke: #000000" points="195.311,148 195.3,135.068 197.192,132.335 197.14,95.7005 "/>
  <polyline style="fill: none; fill-opacity:0; stroke-width: 1; stroke: #000000" points="203.804,148 203.814,96.2818 "/>
  <polyline style="fill: none; fill-opacity:0; stroke-width: 1; stroke: #000000" points="212.297,148 212.208,96.7602 229.457,78.0105 239.082,78.0105 239.207,109.01 250.582,108.885 250.457,78.6355 260.082,78.5105 260.082,95.3852 269.832,95.5102 269.957,78.0105 278.082,77.8855 278.082,96.0102 285.832,96.0102 285.957,77.3855 293.831,77.5105 293.956,96.0102 301.956,96.0102 301.956,77.6355 343.581,77.5105 343.706,96.5102 352.33,96.3852 352.33,77.7605 357.83,77.7605 363.705,72.0106 372.705,72.1356 "/>
  <polyline style="fill: none; fill-opacity:0; stroke-width: 1; stroke: #000000" points="219.79,148 219.848,132.157 223.171,132.076 223.171,126.564 "/>
  <g>
    <polyline style="fill: none; fill-opacity:0; stroke-width: 1; stroke: #000000" points="68.3097,302.403 63.4456,301.285 37.446,275.16 37.321,221.536 66.9455,191.787 71.9036,191.929 "/>
    <path style="fill: #ffffff" d="M 72.2081 303.298 C 71.9842,304.273 70.7857,305.023 69.8111,304.8 C 68.8365,304.576 68.0858,303.377 68.3097,302.403 C 68.5336,301.428 69.7321,300.677 70.7067,300.901 C 71.6813,301.125 72.432,302.323 72.2081,303.298z"/>
    <path style="fill: none; fill-opacity:0; stroke-width: 1; stroke: #000000" d="M 72.2081 303.298 C 71.9842,304.273 70.7857,305.023 69.8111,304.8 C 68.8365,304.576 68.0858,303.377 68.3097,302.403 C 68.5336,301.428 69.7321,300.677 70.7067,300.901 C 71.6813,301.125 72.432,302.323 72.2081,303.298"/>
  </g>
  <g>
    <polyline style="fill: none; fill-opacity:0; stroke-width: 1; stroke: #000000" points="95.3202,302.628 82.4453,302.535 73.6954,293.41 69.1955,293.41 45.9458,270.286 45.9458,227.786 69.4455,204.411 71.9036,200.393 "/>
    <path style="fill: #ffffff" d="M 99.3201 302.656 C 99.3129,303.656 98.3057,304.649 97.3057,304.642 C 96.3058,304.635 95.313,303.628 95.3202,302.628 C 95.3274,301.628 96.3345,300.635 97.3345,300.642 C 98.3345,300.649 99.3273,301.656 99.3201,302.656z"/>
    <path style="fill: none; fill-opacity:0; stroke-width: 1; stroke: #000000" d="M 99.3201 302.656 C 99.3129,303.656 98.3057,304.649 97.3057,304.642 C 96.3058,304.635 95.313,303.628 95.3202,302.628 C 95.3274,301.628 96.3345,300.635 97.3345,300.642 C 98.3345,300.649 99.3273,301.656 99.3201,302.656"/>
  </g>
  <g>
    <polyline style="fill: none; fill-opacity:0; stroke-width: 1; stroke: #000000" points="84.9469,292.16 80.4453,292.035 52.3207,263.536 52.1957,244.161 85.6674,210 "/>
    <path style="fill: #ffffff" d="M 88.9454 292.271 C 88.9176,293.271 87.8903,294.243 86.8906,294.215 C 85.891,294.187 84.9192,293.16 84.9469,292.16 C 84.9747,291.161 86.0021,290.189 87.0017,290.217 C 88.0013,290.244 88.9732,291.272 88.9454,292.271z"/>
    <path style="fill: none; fill-opacity:0; stroke-width: 1; stroke: #000000" d="M 88.9454 292.271 C 88.9176,293.271 87.8903,294.243 86.8906,294.215 C 85.891,294.187 84.9192,293.16 84.9469,292.16 C 84.9747,291.161 86.0021,290.189 87.0017,290.217 C 88.0013,290.244 88.9732,291.272 88.9454,292.271"/>
  </g>
  <g>
    <polyline style="fill: none; fill-opacity:0; stroke-width: 1; stroke: #000000" points="105.947,292.169 102.07,292.285 84.0703,274.035 76.5704,273.91 60.9456,258.786 61.0706,243.161 75.8204,228.036 82.9453,228.161 94.0701,217.286 94.1066,210 "/>
    <path style="fill: #ffffff" d="M 109.945 292.05 C 109.975,293.05 109.005,294.079 108.006,294.109 C 107.006,294.139 105.977,293.169 105.947,292.169 C 105.917,291.17 106.887,290.141 107.886,290.111 C 108.886,290.081 109.915,291.051 109.945,292.05z"/>
    <path style="fill: none; fill-opacity:0; stroke-width: 1; stroke: #000000" d="M 109.945 292.05 C 109.975,293.05 109.005,294.079 108.006,294.109 C 107.006,294.139 105.977,293.169 105.947,292.169 C 105.917,291.17 106.887,290.141 107.886,290.111 C 108.886,290.081 109.915,291.051 109.945,292.05"/>
  </g>
  <g>
    <polyline style="fill: none; fill-opacity:0; stroke-width: 1; stroke: #000000" points="118.718,299.785 118.82,280.41 110.82,271.91 110.985,210 "/>
    <path style="fill: #ffffff" d="M 118.697 303.785 C 117.697,303.78 116.703,302.775 116.708,301.775 C 116.713,300.775 117.718,299.78 118.718,299.785 C 119.718,299.79 120.713,300.796 120.708,301.796 C 120.703,302.796 119.697,303.79 118.697,303.785z"/>
    <path style="fill: none; fill-opacity:0; stroke-width: 1; stroke: #000000" d="M 118.697 303.785 C 117.697,303.78 116.703,302.775 116.708,301.775 C 116.713,300.775 117.718,299.78 118.718,299.785 C 119.718,299.79 120.713,300.796 120.708,301.796 C 120.703,302.796 119.697,303.79 118.697,303.785"/>
  </g>
  <g>
    <polyline style="fill: none; fill-opacity:0; stroke-width: 1; stroke: #000000" points="129.393,289.035 129.32,282.66 119.57,271.91 119.424,210 "/>
    <path style="fill: #ffffff" d="M 129.439 293.035 C 128.439,293.047 127.428,292.058 127.416,291.058 C 127.405,290.058 128.393,289.047 129.393,289.035 C 130.393,289.024 131.404,290.012 131.416,291.012 C 131.427,292.012 130.439,293.024 129.439,293.035z"/>
    <path style="fill: none; fill-opacity:0; stroke-width: 1; stroke: #000000" d="M 129.439 293.035 C 128.439,293.047 127.428,292.058 127.416,291.058 C 127.405,290.058 128.393,289.047 129.393,289.035 C 130.393,289.024 131.404,290.012 131.416,291.012 C 131.427,292.012 130.439,293.024 129.439,293.035"/>
  </g>
  <g>
    <polyline style="fill: none; fill-opacity:0; stroke-width: 1; stroke: #000000" points="140.603,298.91 140.694,286.535 125.945,271.91 125.82,229.286 127.695,226.786 127.863,210 "/>
    <path style="fill: #ffffff" d="M 140.573 302.91 C 139.573,302.903 138.581,301.895 138.588,300.895 C 138.595,299.895 139.603,298.903 140.603,298.91 C 141.603,298.918 142.595,299.925 142.588,300.925 C 142.581,301.925 141.573,302.917 140.573,302.91z"/>
    <path style="fill: none; fill-opacity:0; stroke-width: 1; stroke: #000000" d="M 140.573 302.91 C 139.573,302.903 138.581,301.895 138.588,300.895 C 138.595,299.895 139.603,298.903 140.603,298.91 C 141.603,298.918 142.595,299.925 142.588,300.925 C 142.581,301.925 141.573,302.917 140.573,302.91"/>
  </g>
  <g>
    <polyline style="fill: none; fill-opacity:0; stroke-width: 1; stroke: #000000" points="149.203,289.258 148.069,287.285 130.32,269.411 130.32,231.536 136.445,225.411 136.303,210 "/>
    <path style="fill: #ffffff" d="M 151.195 292.727 C 150.328,293.225 148.963,292.856 148.465,291.989 C 147.967,291.122 148.336,289.756 149.203,289.258 C 150.07,288.76 151.435,289.129 151.933,289.996 C 152.431,290.863 152.062,292.229 151.195,292.727z"/>
    <path style="fill: none; fill-opacity:0; stroke-width: 1; stroke: #000000" d="M 151.195 292.727 C 150.328,293.225 148.963,292.856 148.465,291.989 C 147.967,291.122 148.336,289.756 149.203,289.258 C 150.07,288.76 151.435,289.129 151.933,289.996 C 152.431,290.863 152.062,292.229 151.195,292.727"/>
  </g>
  <g>
    <polyline style="fill: none; fill-opacity:0; stroke-width: 1; stroke: #000000" points="102.455,255.286 102.526,249.286 "/>
    <path style="fill: #ffffff" d="M 102.407 259.286 C 101.407,259.274 100.419,258.262 100.431,257.262 C 100.443,256.262 101.455,255.274 102.455,255.286 C 103.455,255.298 104.443,256.31 104.431,257.31 C 104.419,258.31 103.407,259.298 102.407,259.286z"/>
    <path style="fill: none; fill-opacity:0; stroke-width: 1; stroke: #000000" d="M 102.407 259.286 C 101.407,259.274 100.419,258.262 100.431,257.262 C 100.443,256.262 101.455,255.274 102.455,255.286 C 103.455,255.298 104.443,256.31 104.431,257.31 C 104.419,258.31 103.407,259.298 102.407,259.286"/>
  </g>
  <g>
    <polyline style="fill: none; fill-opacity:0; stroke-width: 1; stroke: #000000" points="74.6955,257.286 84.6513,257.286 "/>
    <path style="fill: #ffffff" d="M 70.6955 257.286 C 70.6955,256.286 71.6955,255.286 72.6955,255.286 C 73.6955,255.286 74.6955,256.286 74.6955,257.286 C 74.6955,258.286 73.6955,259.286 72.6955,259.286 C 71.6955,259.286 70.6955,258.286 70.6955,257.286z"/>
    <path style="fill: none; fill-opacity:0; stroke-width: 1; stroke: #000000" d="M 70.6955 257.286 C 70.6955,256.286 71.6955,255.286 72.6955,255.286 C 73.6955,255.286 74.6955,256.286 74.6955,257.286 C 74.6955,258.286 73.6955,259.286 72.6955,259.286 C 71.6955,259.286 70.6955,258.286 70.6955,257.286"/>
  </g>
  <g>
    <polyline style="fill: none; fill-opacity:0; stroke-width: 1; stroke: #000000" points="151.142,266.661 151.107,248.411 "/>
    <path style="fill: #ffffff" d="M 151.149 270.661 C 150.149,270.662 149.147,269.664 149.145,268.664 C 149.144,267.664 150.142,266.662 151.142,266.661 C 152.142,266.659 153.144,267.657 153.145,268.657 C 153.147,269.657 152.149,270.659 151.149,270.661z"/>
    <path style="fill: none; fill-opacity:0; stroke-width: 1; stroke: #000000" d="M 151.149 270.661 C 150.149,270.662 149.147,269.664 149.145,268.664 C 149.144,267.664 150.142,266.662 151.142,266.661 C 152.142,266.659 153.144,267.657 153.145,268.657 C 153.147,269.657 152.149,270.659 151.149,270.661"/>
  </g>
  <g>
    <polyline style="fill: none; fill-opacity:0; stroke-width: 1; stroke: #000000" points="248.747,230.666 240.378,243.184 237.124,243.144 237.102,239.519 "/>
    <path style="fill: #ffffff" d="M 250.971 227.341 C 251.802,227.897 252.077,229.284 251.522,230.115 C 250.966,230.947 249.579,231.222 248.747,230.666 C 247.916,230.111 247.641,228.723 248.196,227.892 C 248.752,227.061 250.139,226.785 250.971,227.341z"/>
    <path style="fill: none; fill-opacity:0; stroke-width: 1; stroke: #000000" d="M 250.971 227.341 C 251.802,227.897 252.077,229.284 251.522,230.115 C 250.966,230.947 249.579,231.222 248.747,230.666 C 247.916,230.111 247.641,228.723 248.196,227.892 C 248.752,227.061 250.139,226.785 250.971,227.341"/>
  </g>
  <polyline style="fill: none; fill-opacity:0; stroke-width: 1; stroke: #000000" points="102.546,210 102.526,234.036 "/>
  <rect style="fill: none; fill-opacity:0; stroke-width: 1; stroke: #000000" x="99.526" y="234.036" width="5.99991" height="15.2498"/>
  <rect style="fill: none; fill-opacity:0; stroke-width: 1; stroke: #000000" x="80.5263" y="238.661" width="8.24988" height="18.6247"/>
  <polyline style="fill: none; fill-opacity:0; stroke-width: 1; stroke: #000000" points="84.6513,238.661 84.7763,234.036 102.526,234.036 "/>
  <g>
    <polyline style="fill: none; fill-opacity:0; stroke-width: 1; stroke: #000000" points="136.194,237.263 144.775,228.786 150.525,228.661 161.65,218.036 161.62,210 "/>
    <path style="fill: #000000" d="M 136.194 237.263 C 135.843,236.908 135.847,236.2 136.203,235.849 C 136.558,235.498 137.265,235.502 137.617,235.858 C 137.968,236.213 137.964,236.921 137.608,237.272 C 137.253,237.623 136.545,237.619 136.194,237.263z"/>
    <path style="fill: none; fill-opacity:0; stroke-width: 1; stroke: #000000" d="M 136.194 237.263 C 135.843,236.908 135.847,236.2 136.203,235.849 C 136.558,235.498 137.265,235.502 137.617,235.858 C 137.968,236.213 137.964,236.921 137.608,237.272 C 137.253,237.623 136.545,237.619 136.194,237.263"/>
  </g>
  <polyline style="fill: none; fill-opacity:0; stroke-width: 1; stroke: #000000" points="151.107,235.424 160.15,225.911 169.525,225.786 178.275,217.411 178.498,210 "/>
  <rect style="fill: none; fill-opacity:0; stroke-width: 1; stroke: #000000" x="148.688" y="235.424" width="4.83742" height="12.9873"/>
  <rect style="fill: none; fill-opacity:0; stroke-width: 1; stroke: #000000" x="160.063" y="235.424" width="4.83742" height="12.9873"/>
  <g>
    <polyline style="fill: none; fill-opacity:0; stroke-width: 1; stroke: #000000" points="325.773,251.161 279.148,298.66 166.65,298.535 136.901,269.036 137.026,244.786 "/>
    <path style="fill: #000000" d="M 137.026 244.786 C 137.525,244.788 138.023,245.291 138.02,245.791 C 138.018,246.291 137.515,246.788 137.015,246.786 C 136.515,246.783 136.018,246.281 136.02,245.781 C 136.023,245.281 136.526,244.783 137.026,244.786z"/>
    <path style="fill: none; fill-opacity:0; stroke-width: 1; stroke: #000000" d="M 137.026 244.786 C 137.525,244.788 138.023,245.291 138.02,245.791 C 138.018,246.291 137.515,246.788 137.015,246.786 C 136.515,246.783 136.018,246.281 136.02,245.781 C 136.023,245.281 136.526,244.783 137.026,244.786"/>
  </g>
  <polyline style="fill: none; fill-opacity:0; stroke-width: 1; stroke: #000000" points="162.481,235.424 170.65,228.536 175.4,228.661 186.9,217.661 186.938,210 "/>
  <g>
    <polyline style="fill: none; fill-opacity:0; stroke-width: 1; stroke: #000000" points="195.377,210 195.275,271.91 191.038,277.358 "/>
    <path style="fill: #ffffff" d="M 188.582 280.516 C 187.792,279.902 187.617,278.498 188.231,277.709 C 188.845,276.92 190.248,276.744 191.038,277.358 C 191.827,277.972 192.002,279.376 191.388,280.165 C 190.774,280.954 189.371,281.13 188.582,280.516z"/>
    <path style="fill: none; fill-opacity:0; stroke-width: 1; stroke: #000000" d="M 188.582 280.516 C 187.792,279.902 187.617,278.498 188.231,277.709 C 188.845,276.92 190.248,276.744 191.038,277.358 C 191.827,277.972 192.002,279.376 191.388,280.165 C 190.774,280.954 189.371,281.13 188.582,280.516"/>
  </g>
  <rect style="fill: none; fill-opacity:0; stroke-width: 1; stroke: #000000" x="185.4" y="234.174" width="7.2499" height="3.23745"/>
  <rect style="fill: none; fill-opacity:0; stroke-width: 1; stroke: #000000" x="185.437" y="246.673" width="7.2499" height="3.23745"/>
  <rect style="fill: none; fill-opacity:0; stroke-width: 1; stroke: #000000" x="176.65" y="259.036" width="15.9498" height="7.99988"/>
  <g>
    <line style="fill: none; fill-opacity:0; stroke-width: 1; stroke: #000000" x1="192.65" y1="235.792" x2="196.187" y2="235.707"/>
    <path style="fill: #000000" d="M 196.187 235.707 C 196.199,236.206 195.711,236.718 195.212,236.731 C 194.712,236.743 194.2,236.255 194.188,235.755 C 194.176,235.255 194.663,234.743 195.163,234.731 C 195.663,234.719 196.175,235.207 196.187,235.707z"/>
    <path style="fill: none; fill-opacity:0; stroke-width: 1; stroke: #000000" d="M 196.187 235.707 C 196.199,236.206 195.711,236.718 195.212,236.731 C 194.712,236.743 194.2,236.255 194.188,235.755 C 194.176,235.255 194.663,234.743 195.163,234.731 C 195.663,234.719 196.175,235.207 196.187,235.707"/>
  </g>
  <g>
    <line style="fill: none; fill-opacity:0; stroke-width: 1; stroke: #000000" x1="192.687" y1="248.292" x2="196.187" y2="248.425"/>
    <path style="fill: #000000" d="M 196.187 248.425 C 196.168,248.925 195.649,249.405 195.15,249.386 C 194.65,249.367 194.17,248.849 194.189,248.349 C 194.207,247.85 194.726,247.369 195.226,247.388 C 195.725,247.407 196.206,247.925 196.187,248.425z"/>
    <path style="fill: none; fill-opacity:0; stroke-width: 1; stroke: #000000" d="M 196.187 248.425 C 196.168,248.925 195.649,249.405 195.15,249.386 C 194.65,249.367 194.17,248.849 194.189,248.349 C 194.207,247.85 194.726,247.369 195.226,247.388 C 195.725,247.407 196.206,247.925 196.187,248.425"/>
  </g>
  <g>
    <line style="fill: none; fill-opacity:0; stroke-width: 1; stroke: #000000" x1="192.6" y1="263.036" x2="196.4" y2="263.036"/>
    <path style="fill: #000000" d="M 196.4 263.036 C 196.4,263.536 195.9,264.036 195.4,264.036 C 194.9,264.036 194.4,263.536 194.4,263.036 C 194.4,262.536 194.9,262.036 195.4,262.036 C 195.9,262.036 196.4,262.536 196.4,263.036z"/>
    <path style="fill: none; fill-opacity:0; stroke-width: 1; stroke: #000000" d="M 196.4 263.036 C 196.4,263.536 195.9,264.036 195.4,264.036 C 194.9,264.036 194.4,263.536 194.4,263.036 C 194.4,262.536 194.9,262.036 195.4,262.036 C 195.9,262.036 196.4,262.536 196.4,263.036"/>
  </g>
  <g>
    <polyline style="fill: none; fill-opacity:0; stroke-width: 1; stroke: #000000" points="185.4,235.792 180.632,235.661 180.507,248.161 171.882,257.786 172.007,262.911 165.007,270.536 164.949,271.915 "/>
    <path style="fill: #ffffff" d="M 164.779 275.911 C 163.78,275.868 162.823,274.827 162.865,273.828 C 162.908,272.829 163.95,271.872 164.949,271.915 C 165.948,271.957 166.904,272.999 166.862,273.998 C 166.819,274.997 165.778,275.953 164.779,275.911z"/>
    <path style="fill: none; fill-opacity:0; stroke-width: 1; stroke: #000000" d="M 164.779 275.911 C 163.78,275.868 162.823,274.827 162.865,273.828 C 162.908,272.829 163.95,271.872 164.949,271.915 C 165.948,271.957 166.904,272.999 166.862,273.998 C 166.819,274.997 165.778,275.953 164.779,275.911"/>
  </g>
  <g>
    <line style="fill: none; fill-opacity:0; stroke-width: 1; stroke: #000000" x1="185.437" y1="248.292" x2="179.257" y2="248.161"/>
    <path style="fill: #000000" d="M 179.257 248.161 C 179.268,247.661 179.778,247.172 180.278,247.182 C 180.778,247.193 181.267,247.703 181.257,248.203 C 181.246,248.703 180.736,249.192 180.236,249.182 C 179.736,249.171 179.247,248.661 179.257,248.161z"/>
    <path style="fill: none; fill-opacity:0; stroke-width: 1; stroke: #000000" d="M 179.257 248.161 C 179.268,247.661 179.778,247.172 180.278,247.182 C 180.778,247.193 181.267,247.703 181.257,248.203 C 181.246,248.703 180.736,249.192 180.236,249.182 C 179.736,249.171 179.247,248.661 179.257,248.161"/>
  </g>
  <g>
    <line style="fill: none; fill-opacity:0; stroke-width: 1; stroke: #000000" x1="176.65" y1="263.036" x2="171.007" y2="263.161"/>
    <path style="fill: #000000" d="M 171.007 263.161 C 170.996,262.661 171.485,262.15 171.985,262.139 C 172.485,262.128 172.996,262.616 173.007,263.116 C 173.018,263.616 172.529,264.127 172.029,264.138 C 171.529,264.149 171.018,263.661 171.007,263.161z"/>
    <path style="fill: none; fill-opacity:0; stroke-width: 1; stroke: #000000" d="M 171.007 263.161 C 170.996,262.661 171.485,262.15 171.985,262.139 C 172.485,262.128 172.996,262.616 173.007,263.116 C 173.018,263.616 172.529,264.127 172.029,264.138 C 171.529,264.149 171.018,263.661 171.007,263.161"/>
  </g>
  <g>
    <polyline style="fill: none; fill-opacity:0; stroke-width: 1; stroke: #000000" points="203.816,210 203.632,221.161 231.131,248.911 314.986,248.84 322.611,241.465 322.486,227.091 355.235,193.716 358.735,193.716 "/>
    <path style="fill: #ffffff" d="M 362.735 193.716 C 362.735,194.716 361.735,195.716 360.735,195.716 C 359.735,195.716 358.735,194.716 358.735,193.716 C 358.735,192.716 359.735,191.716 360.735,191.716 C 361.735,191.716 362.735,192.716 362.735,193.716z"/>
    <path style="fill: none; fill-opacity:0; stroke-width: 1; stroke: #000000" d="M 362.735 193.716 C 362.735,194.716 361.735,195.716 360.735,195.716 C 359.735,195.716 358.735,194.716 358.735,193.716 C 358.735,192.716 359.735,191.716 360.735,191.716 C 361.735,191.716 362.735,192.716 362.735,193.716"/>
  </g>
  <g>
    <polyline style="fill: none; fill-opacity:0; stroke-width: 1; stroke: #000000" points="212.255,210 212.132,218.536 221.382,228.161 237.124,228.207 244.493,220.707 317.361,220.66 354.048,184.411 360.598,184.444 364.01,179.857 "/>
    <path style="fill: #ffffff" d="M 366.396 176.647 C 367.199,177.244 367.405,178.643 366.808,179.445 C 366.211,180.248 364.812,180.454 364.01,179.857 C 363.207,179.26 363.001,177.861 363.598,177.059 C 364.195,176.256 365.594,176.05 366.396,176.647z"/>
    <path style="fill: none; fill-opacity:0; stroke-width: 1; stroke: #000000" d="M 366.396 176.647 C 367.199,177.244 367.405,178.643 366.808,179.445 C 366.211,180.248 364.812,180.454 364.01,179.857 C 363.207,179.26 363.001,177.861 363.598,177.059 C 364.195,176.256 365.594,176.05 366.396,176.647"/>
  </g>
  <rect style="fill: none; fill-opacity:0; stroke-width: 1; stroke: #000000" x="234.768" y="230.463" width="4.66866" height="9.05608"/>
  <g>
    <line style="fill: none; fill-opacity:0; stroke-width: 1; stroke: #000000" x1="237.102" y1="230.463" x2="236.999" y2="226.957"/>
    <path style="fill: #000000" d="M 236.999 226.957 C 237.499,226.942 238.013,227.427 238.028,227.927 C 238.043,228.427 237.557,228.941 237.058,228.956 C 236.558,228.971 236.043,228.486 236.029,227.986 C 236.014,227.486 236.499,226.971 236.999,226.957z"/>
    <path style="fill: none; fill-opacity:0; stroke-width: 1; stroke: #000000" d="M 236.999 226.957 C 237.499,226.942 238.013,227.427 238.028,227.927 C 238.043,228.427 237.557,228.941 237.058,228.956 C 236.558,228.971 236.043,228.486 236.029,227.986 C 236.014,227.486 236.499,226.971 236.999,226.957"/>
  </g>
  <polyline style="fill: none; fill-opacity:0; stroke-width: 1; stroke: #000000" points="482.207,88.0103 464.582,88.1353 461.707,91.8853 435.833,91.8853 413.911,114.104 404.037,114.104 403.912,109.729 392.912,109.854 392.912,120.354 382.037,120.229 382.162,110.354 271.414,110.354 264.039,118.479 247.164,118.479 247.039,140.603 239.914,148.353 239.789,152.353 235.04,157.853 231.904,157.808 "/>
  <polyline style="fill: none; fill-opacity:0; stroke-width: 1; stroke: #000000" points="231.904,166.325 238.197,166.353 238.322,160.853 251.572,147.978 251.447,140.603 263.821,140.603 263.946,123.478 270.321,123.603 270.321,140.728 278.946,140.603 279.071,115.104 284.946,115.104 285.071,130.478 292.321,130.353 292.321,115.104 299.196,115.104 299.321,130.478 313.446,130.353 313.321,122.478 327.82,122.353 327.82,130.603 341.82,130.728 341.695,115.104 349.195,115.229 348.945,131.103 356.82,131.228 356.945,115.604 364.07,115.604 363.945,124.853 402.694,124.728 402.569,135.103 411.444,135.228 411.444,119.729 419.819,119.729 419.944,135.478 426.083,135.498 426.083,108.374 435.333,99.374 445.583,99.374 445.708,96.4991 456.957,96.6241 456.957,100.499 467.582,100.374 467.582,92.9991 476.832,92.8741 479.332,95.9991 "/>
  <polyline style="fill: none; fill-opacity:0; stroke-width: 1; stroke: #000000" points="231.904,174.842 238.517,175.248 243.017,170.373 242.892,163.498 260.142,145.873 289.016,145.873 289.016,136.748 357.765,136.623 364.14,129.874 396.764,129.749 396.764,140.373 424.639,140.373 "/>
  <g>
    <polyline style="fill: none; fill-opacity:0; stroke-width: 1; stroke: #000000" points="231.904,183.359 251.362,183.373 257.487,176.373 257.737,155.748 260.737,152.342 295.736,152.498 295.861,146.373 357.11,146.373 360.582,143.876 "/>
    <path style="fill: #ffffff" d="M 363.829 141.54 C 364.413,142.352 364.185,143.748 363.373,144.332 C 362.562,144.916 361.166,144.688 360.582,143.876 C 359.998,143.064 360.226,141.668 361.038,141.085 C 361.849,140.501 363.245,140.728 363.829,141.54z"/>
    <path style="fill: none; fill-opacity:0; stroke-width: 1; stroke: #000000" d="M 363.829 141.54 C 364.413,142.352 364.185,143.748 363.373,144.332 C 362.562,144.916 361.166,144.688 360.582,143.876 C 359.998,143.064 360.226,141.668 361.038,141.085 C 361.849,140.501 363.245,140.728 363.829,141.54"/>
  </g>
  <g>
    <polyline style="fill: none; fill-opacity:0; stroke-width: 1; stroke: #000000" points="241.525,207.62 245.362,202.966 255.112,202.966 254.987,214.841 265.737,214.841 269.237,211.341 319.736,211.466 327.111,204.341 326.986,191.091 334.111,191.091 334.236,184.341 314.111,184.341 311.861,181.341 311.736,177.841 338.236,150.717 344.61,150.842 344.61,178.091 356.985,178.091 356.86,169.217 359.485,166.717 369.372,165.886 "/>
    <path style="fill: #ffffff" d="M 373.358 165.551 C 373.442,166.547 372.529,167.628 371.532,167.711 C 370.536,167.795 369.456,166.882 369.372,165.886 C 369.288,164.889 370.201,163.809 371.197,163.725 C 372.194,163.642 373.274,164.554 373.358,165.551z"/>
    <path style="fill: none; fill-opacity:0; stroke-width: 1; stroke: #000000" d="M 373.358 165.551 C 373.442,166.547 372.529,167.628 371.532,167.711 C 370.536,167.795 369.456,166.882 369.372,165.886 C 369.288,164.889 370.201,163.809 371.197,163.725 C 372.194,163.642 373.274,164.554 373.358,165.551"/>
  </g>
  <g>
    <line style="fill: none; fill-opacity:0; stroke-width: 1; stroke: #000000" x1="269.112" y1="219.684" x2="269.237" y2="225.559"/>
    <path style="fill: #000000" d="M 269.112 219.684 C 269.612,219.674 270.122,220.163 270.133,220.663 C 270.143,221.163 269.654,221.673 269.154,221.684 C 268.654,221.695 268.144,221.205 268.133,220.706 C 268.123,220.206 268.612,219.695 269.112,219.684z"/>
    <path style="fill: none; fill-opacity:0; stroke-width: 1; stroke: #000000" d="M 269.112 219.684 C 269.612,219.674 270.122,220.163 270.133,220.663 C 270.143,221.163 269.654,221.673 269.154,221.684 C 268.654,221.695 268.144,221.205 268.133,220.706 C 268.123,220.206 268.612,219.695 269.112,219.684"/>
    <path style="fill: #000000" d="M 269.237 225.559 C 268.737,225.57 268.226,225.081 268.216,224.581 C 268.205,224.081 268.694,223.57 269.194,223.56 C 269.694,223.549 270.205,224.038 270.215,224.538 C 270.226,225.038 269.737,225.549 269.237,225.559z"/>
    <path style="fill: none; fill-opacity:0; stroke-width: 1; stroke: #000000" d="M 269.237 225.559 C 268.737,225.57 268.226,225.081 268.216,224.581 C 268.205,224.081 268.694,223.57 269.194,223.56 C 269.694,223.549 270.205,224.038 270.215,224.538 C 270.226,225.038 269.737,225.549 269.237,225.559"/>
  </g>
  <rect style="fill: none; fill-opacity:0; stroke-width: 1; stroke: #000000" x="90.8166" y="108.194" width="5.25426" height="12.0004"/>
  <rect style="fill: none; fill-opacity:0; stroke-width: 1; stroke: #000000" x="113.949" y="111.669" width="5.25426" height="12.0004"/>
  <rect style="fill: none; fill-opacity:0; stroke-width: 1; stroke: #000000" x="126.894" y="111.679" width="5.25426" height="12.0004"/>
  <rect style="fill: none; fill-opacity:0; stroke-width: 1; stroke: #000000" x="141.67" y="111.785" width="5.25426" height="12.0004"/>
  <rect style="fill: none; fill-opacity:0; stroke-width: 1; stroke: #000000" x="154.615" y="111.795" width="5.25426" height="12.0004"/>
  <rect style="fill: none; fill-opacity:0; stroke-width: 1; stroke: #000000" x="167.849" y="111.804" width="5.25426" height="12.0004"/>
  <rect style="fill: none; fill-opacity:0; stroke-width: 1; stroke: #000000" x="187.058" y="111.814" width="5.25426" height="12.0004"/>
  <g>
    <line style="fill: none; fill-opacity:0; stroke-width: 1; stroke: #000000" x1="94.3515" y1="123.176" x2="81.6763" y2="123.176"/>
    <path style="fill: #000000" d="M 94.3515 123.176 C 94.3515,123.676 93.8515,124.176 93.3515,124.176 C 92.8515,124.176 92.3515,123.676 92.3515,123.176 C 92.3515,122.676 92.8515,122.176 93.3515,122.176 C 93.8515,122.176 94.3515,122.676 94.3515,123.176z"/>
    <path style="fill: none; fill-opacity:0; stroke-width: 1; stroke: #000000" d="M 94.3515 123.176 C 94.3515,123.676 93.8515,124.176 93.3515,124.176 C 92.8515,124.176 92.3515,123.676 92.3515,123.176 C 92.3515,122.676 92.8515,122.176 93.3515,122.176 C 93.8515,122.176 94.3515,122.676 94.3515,123.176"/>
    <path style="fill: #ffffff" d="M 77.6763 123.176 C 77.6763,122.176 78.6763,121.176 79.6763,121.176 C 80.6763,121.176 81.6763,122.176 81.6763,123.176 C 81.6763,124.176 80.6763,125.176 79.6763,125.176 C 78.6763,125.176 77.6763,124.176 77.6763,123.176z"/>
    <path style="fill: none; fill-opacity:0; stroke-width: 1; stroke: #000000" d="M 77.6763 123.176 C 77.6763,122.176 78.6763,121.176 79.6763,121.176 C 80.6763,121.176 81.6763,122.176 81.6763,123.176 C 81.6763,124.176 80.6763,125.176 79.6763,125.176 C 78.6763,125.176 77.6763,124.176 77.6763,123.176"/>
  </g>
  <polyline style="fill: none; fill-opacity:0; stroke-width: 1; stroke: #000000" points="71.9036,166.535 27.9138,166.551 27.8457,171.595 "/>
  <g>
    <line style="fill: none; fill-opacity:0; stroke-width: 1; stroke: #000000" x1="27.8457" y1="171.595" x2="27.8457" y2="175.684"/>
    <line style="fill: none; fill-opacity:0; stroke-width: 1; stroke: #000000" x1="23.4156" y1="175.684" x2="32.2757" y2="175.684"/>
    <line style="fill: none; fill-opacity:0; stroke-width: 1; stroke: #000000" x1="24.8996" y1="177.729" x2="30.7917" y2="177.729"/>
    <line style="fill: none; fill-opacity:0; stroke-width: 1; stroke: #000000" x1="26.3837" y1="179.773" x2="29.3076" y2="179.773"/>
  </g>
  <polyline style="fill: none; fill-opacity:0; stroke-width: 1; stroke: #000000" points="71.9036,158.071 56.9479,158.1 56.9614,174.979 71.9036,175 "/>
  <ellipse style="fill: #000000" cx="56.8911" cy="166.472" rx="1.20544" ry="1.20544"/>
</svg>
